<svg xmlns="http://www.w3.org/2000/svg" viewBox="3 16 960 390" role="img" aria-label="Practice Porter">
<style>
  .pp-red { fill: #A32705; }
  .pp-ink { fill: #1A1A1A; }
  @media (prefers-color-scheme: dark) {
    .pp-red, .pp-ink { fill: #fff; }
  }
</style>
<g transform="translate(0,433) scale(0.1,-0.100000)">
  <path class="pp-red" d="M5395 4154 c-211 -31 -363 -102 -497 -233 -76 -74 -1358 -1577 -1358 -1592 0 -16 158 -111 232 -139 280 -108 585 -64 831 121 54 41 208 216 738 840 368 434 672 795 675 802 8 22 -119 103 -226 145 -110 43 -300 70 -395 56z M1775 4139 c-817 -85 -1480 -657 -1681 -1450 -72 -284 -74 -645 -5 -933 130 -544 502 -1016 1000 -1270 194 -98 392 -161 600 -190 145 -21 411 -21 550 -1 435 64 837 262 1142 565 52 52 185 201 294 330 109 129 206 244 216 255 17 20 16 22 -77 100 -188 159 -286 200 -479 200 -104 -1 -130 -4 -198 -28 -112 -39 -189 -92 -302 -209 -189 -195 -352 -294 -584 -355 -138 -36 -358 -43 -491 -15 -217 45 -392 137 -546 287 -151 148 -244 309 -302 524 -23 85 -26 115 -26 266 0 152 3 180 26 267 116 429 441 732 868 809 107 19 316 17 419 -5 179 -37 347 -113 482 -217 212 -165 375 -214 578 -175 165 31 271 99 411 263 75 86 89 108 78 118 -34 33 -490 415 -543 456 -400 307 -934 460 -1430 408z" />
  <path class="pp-ink" d="M7520 4154 c-14 -2 -65 -9 -114 -15 -408 -51 -854 -276 -1153 -581 -103 -105 -504 -580 -500 -593 8 -26 218 -189 282 -220 187 -90 401 -86 588 12 56 30 100 66 202 168 176 177 310 264 506 329 265 89 581 70 824 -48 361 -176 594 -532 612 -937 7 -149 -7 -256 -48 -384 -59 -184 -150 -327 -298 -467 -188 -178 -418 -273 -691 -285 -284 -13 -532 67 -777 251 -176 132 -268 167 -438 167 -113 0 -190 -17 -282 -62 -88 -43 -147 -92 -251 -211 l-91 -105 37 -35 c59 -57 460 -394 538 -454 394 -297 927 -445 1412 -394 678 73 1240 459 1542 1060 134 266 200 554 200 870 0 312 -61 579 -195 855 -324 669 -1003 1091 -1743 1084 -75 -1 -148 -3 -162 -5z M5485 2300 c-178 -19 -345 -93 -482 -213 -20 -18 -338 -387 -706 -821 l-671 -790 38 -32 c55 -47 178 -109 281 -140 79 -24 107 -27 230 -27 123 0 151 3 228 27 160 48 288 126 392 238 113 122 1320 1548 1320 1560 0 20 -136 106 -218 138 -139 55 -276 74 -412 60z" />
</g>
</svg>
